<svg xmlns="http://www.w3.org/2000/svg" width="768.064" height="1024" viewBox="0 0 768.064 1024">
    <path id="location" d="M512.064,567.872c105.888,0,192-86.144,192-192s-86.112-192-192-192-192,86.112-192,192S406.176,567.872,512.064,567.872Zm0-352c88.256,0,160,71.744,160,160s-71.744,160-160,160-160-71.744-160-160,71.744-160,160-160ZM512,0C300.224,0,128,170.112,128,384.032c0,224,192.032,453.152,332.032,614.208.512.64,22.976,25.76,50.752,25.76h2.464c27.744,0,50.24-25.12,50.752-25.76C704.064,837.184,896.064,608.064,896.064,384.032,896.064,170.112,723.808,0,512,0Zm3.744,956.256a38.856,38.856,0,0,1-4.32,3.136c-.32-.864-2.688-2.752-4.128-4.256C390.016,820.192,192,592.448,192,384.032,192,207.584,335.584,64,512,64c176.512,0,320.064,143.584,320.064,320.064,0,208.384-198.016,436.128-316.32,572.192Z" transform="translate(-128 0)" fill="#6b7280"/>
</svg>
