<!-- Generated by IcoMoon.io -->
<svg version="1.1" xmlns="http://www.w3.org/2000/svg" width="60" height="60" viewBox="0 0 60 60"><title>truck1</title>
<path fill="#6b7280" d="M46.56 21.459c-0.349-0.521-0.934-0.834-1.56-0.834h-1.875c-1.037 0-1.875 0.838-1.875 1.875v11.25c0 1.037 0.838 1.875 1.875 1.875h7.5c1.037 0 1.875-0.838 1.875-1.875v-2.813c0-0.369-0.111-0.733-0.315-1.041l-5.625-8.438zM50.625 33.75h-7.5v-11.25h1.875l5.625 8.438v2.813zM59.055 28.755l-7.5-11.25c-1.046-1.569-2.798-2.505-4.68-2.505h-7.5v-3.75c0-3.101-2.524-5.625-5.625-5.625h-28.125c-3.101 0-5.625 2.524-5.625 5.625v20.625c0 3.101 2.524 5.625 5.625 5.625v0 5.625c0 3.101 2.524 5.625 5.625 5.625h2.141c0.838 3.227 3.75 5.625 7.236 5.625 3.482 0 6.394-2.398 7.232-5.625h9.904c0.838 3.227 3.75 5.625 7.236 5.625 3.482 0 6.394-2.398 7.232-5.625h2.145c3.101 0 5.625-2.524 5.625-5.625v-11.25c0-1.114-0.326-2.194-0.945-3.12zM5.625 33.75c-1.035 0-1.875-0.838-1.875-1.875v-20.625c0-1.037 0.84-1.875 1.875-1.875h28.125c1.037 0 1.875 0.838 1.875 1.875v20.625c0 1.037-0.838 1.875-1.875 1.875h-28.125zM20.627 50.625c-2.072 0-3.75-1.68-3.75-3.75s1.678-3.75 3.75-3.75c2.070 0 3.75 1.68 3.75 3.75s-1.682 3.75-3.75 3.75zM45 50.625c-2.072 0-3.75-1.68-3.75-3.75s1.678-3.75 3.75-3.75c2.070 0 3.75 1.68 3.75 3.75s-1.68 3.75-3.75 3.75zM56.25 43.125c0 1.037-0.838 1.875-1.875 1.875h-2.143c-0.838-3.227-3.75-5.625-7.232-5.625-3.486 0-6.398 2.398-7.236 5.625h-9.904c-0.838-3.227-3.75-5.625-7.232-5.625-3.486 0-6.397 2.398-7.236 5.625h-2.143c-1.035 0-1.875-0.838-1.875-1.875v-5.625h24.375c3.101 0 5.625-2.524 5.625-5.625v-13.125h7.5c0.626 0 1.211 0.313 1.56 0.834l7.5 11.25c0.204 0.308 0.315 0.671 0.315 1.041v11.25z"></path>
</svg>
